<svg width="1366" height="324" viewBox="0 0 1366 324" fill="none" xmlns="http://www.w3.org/2000/svg">
<line y1="291.5" x2="1366" y2="291.5" stroke="#ABB2BF"/>
<rect x="428.5" y="14.5" width="510" height="94" fill="#282C33"/>
<rect x="428.5" y="14.5" width="510" height="94" stroke="#ABB2BF"/>
<path d="M469.9 70V55.708H464.5V70H461.716V53.44H472.684V70H469.9ZM482.707 56.992C483.827 56.992 484.723 57.268 485.395 57.82C486.067 58.364 486.555 59.136 486.859 60.136C487.163 61.128 487.315 62.296 487.315 63.64C487.315 64.928 487.131 66.076 486.763 67.084C486.395 68.092 485.847 68.884 485.119 69.46C484.399 70.036 483.503 70.324 482.431 70.324C481.103 70.324 480.031 69.856 479.215 68.92V74.872L476.527 75.172V57.328H478.867L479.035 58.96C479.515 58.304 480.071 57.812 480.703 57.484C481.343 57.156 482.011 56.992 482.707 56.992ZM481.963 59.068C481.363 59.068 480.835 59.248 480.379 59.608C479.923 59.968 479.535 60.392 479.215 60.88V66.808C479.519 67.264 479.879 67.616 480.295 67.864C480.719 68.104 481.195 68.224 481.723 68.224C482.627 68.224 483.315 67.86 483.787 67.132C484.259 66.404 484.495 65.244 484.495 63.652C484.495 62.572 484.399 61.696 484.207 61.024C484.023 60.344 483.743 59.848 483.367 59.536C482.999 59.224 482.531 59.068 481.963 59.068ZM495.993 56.992C497.233 56.992 498.277 57.268 499.125 57.82C499.973 58.372 500.613 59.144 501.045 60.136C501.485 61.128 501.705 62.296 501.705 63.64C501.705 64.976 501.481 66.148 501.033 67.156C500.593 68.156 499.945 68.936 499.089 69.496C498.241 70.048 497.205 70.324 495.981 70.324C494.757 70.324 493.717 70.056 492.861 69.52C492.013 68.976 491.365 68.204 490.917 67.204C490.477 66.204 490.257 65.024 490.257 63.664C490.257 62.344 490.477 61.184 490.917 60.184C491.365 59.184 492.017 58.404 492.873 57.844C493.729 57.276 494.769 56.992 495.993 56.992ZM495.993 59.08C495.025 59.08 494.297 59.452 493.809 60.196C493.321 60.932 493.077 62.088 493.077 63.664C493.077 65.232 493.317 66.388 493.797 67.132C494.285 67.876 495.013 68.248 495.981 68.248C496.949 68.248 497.673 67.876 498.153 67.132C498.641 66.388 498.885 65.224 498.885 63.64C498.885 62.08 498.645 60.932 498.165 60.196C497.685 59.452 496.961 59.08 495.993 59.08ZM510.204 56.992C511.276 56.992 512.212 57.12 513.012 57.376C513.812 57.632 514.436 58.008 514.884 58.504C515.332 59 515.556 59.608 515.556 60.328C515.556 61.008 515.352 61.58 514.944 62.044C514.536 62.508 513.876 62.856 512.964 63.088C514.036 63.208 514.84 63.532 515.376 64.06C515.912 64.58 516.18 65.304 516.18 66.232C516.18 67.128 515.928 67.856 515.424 68.416C514.928 68.968 514.26 69.372 513.42 69.628C512.588 69.876 511.668 70 510.66 70H505.548V57.472C506.308 57.336 507.068 57.224 507.828 57.136C508.588 57.04 509.38 56.992 510.204 56.992ZM510.204 58.912C509.804 58.912 509.456 58.924 509.16 58.948C508.864 58.964 508.556 58.996 508.236 59.044V68.044H510.588C511.532 68.044 512.236 67.888 512.7 67.576C513.164 67.256 513.396 66.772 513.396 66.124C513.396 65.604 513.268 65.204 513.012 64.924C512.756 64.636 512.416 64.436 511.992 64.324C511.576 64.204 511.124 64.144 510.636 64.144H507.852V62.416H510.468C511.212 62.416 511.8 62.284 512.232 62.02C512.664 61.756 512.88 61.296 512.88 60.64C512.88 60.032 512.656 59.592 512.208 59.32C511.768 59.048 511.1 58.912 510.204 58.912ZM521.931 64.528C521.987 65.392 522.171 66.1 522.483 66.652C522.795 67.196 523.203 67.596 523.707 67.852C524.219 68.108 524.779 68.236 525.387 68.236C526.011 68.236 526.587 68.14 527.115 67.948C527.643 67.756 528.175 67.484 528.711 67.132L529.875 68.74C529.283 69.22 528.591 69.604 527.799 69.892C527.007 70.18 526.159 70.324 525.255 70.324C523.943 70.324 522.831 70.044 521.919 69.484C521.015 68.924 520.327 68.144 519.855 67.144C519.383 66.144 519.146 64.988 519.146 63.676C519.146 62.404 519.379 61.268 519.843 60.268C520.307 59.26 520.971 58.464 521.835 57.88C522.699 57.288 523.731 56.992 524.931 56.992C526.059 56.992 527.027 57.248 527.835 57.76C528.651 58.272 529.279 59 529.719 59.944C530.167 60.88 530.391 62.008 530.391 63.328C530.391 63.544 530.383 63.76 530.367 63.976C530.359 64.184 530.347 64.368 530.331 64.528H521.931ZM524.955 58.984C524.115 58.984 523.419 59.284 522.867 59.884C522.323 60.484 522.007 61.42 521.919 62.692H527.787C527.763 61.5 527.507 60.584 527.019 59.944C526.539 59.304 525.851 58.984 524.955 58.984ZM544.097 57.328V67.912L542.813 70H534.773L533.369 67.912C533.713 67.6 534.001 67.216 534.233 66.76C534.465 66.304 534.657 65.66 534.809 64.828C534.969 63.988 535.101 62.848 535.205 61.408L535.505 57.328H544.097ZM541.493 59.344H537.905L537.785 61.264C537.705 62.36 537.613 63.28 537.509 64.024C537.405 64.768 537.269 65.384 537.101 65.872C536.941 66.352 536.741 66.752 536.501 67.072C536.261 67.384 535.969 67.664 535.625 67.912H541.493V59.344ZM532.469 67.912H536.021L535.865 70H534.977L534.581 73.78H532.469V67.912ZM545.141 67.912V73.78H543.017L542.621 70H541.733L541.577 67.912H545.141ZM558.608 57.328V70H556.004V64.792C556.004 63.872 556.04 63.004 556.112 62.188C556.192 61.364 556.288 60.64 556.4 60.016L551.48 70H548.48V57.328H551.084V62.548C551.084 63.42 551.048 64.28 550.976 65.128C550.904 65.968 550.804 66.684 550.676 67.276L555.56 57.328H558.608ZM573.91 57.328L573.598 59.428H569.278V70H566.59V59.428H562.102V57.328H573.91ZM579.493 64.528C579.549 65.392 579.733 66.1 580.045 66.652C580.357 67.196 580.765 67.596 581.269 67.852C581.781 68.108 582.341 68.236 582.949 68.236C583.573 68.236 584.149 68.14 584.677 67.948C585.205 67.756 585.737 67.484 586.273 67.132L587.437 68.74C586.845 69.22 586.153 69.604 585.361 69.892C584.569 70.18 583.721 70.324 582.817 70.324C581.505 70.324 580.393 70.044 579.481 69.484C578.577 68.924 577.889 68.144 577.417 67.144C576.945 66.144 576.709 64.988 576.709 63.676C576.709 62.404 576.941 61.268 577.405 60.268C577.869 59.26 578.533 58.464 579.397 57.88C580.261 57.288 581.293 56.992 582.493 56.992C583.621 56.992 584.589 57.248 585.397 57.76C586.213 58.272 586.841 59 587.281 59.944C587.729 60.88 587.953 62.008 587.953 63.328C587.953 63.544 587.945 63.76 587.929 63.976C587.921 64.184 587.909 64.368 587.893 64.528H579.493ZM582.517 58.984C581.677 58.984 580.981 59.284 580.429 59.884C579.885 60.484 579.569 61.42 579.481 62.692H585.349C585.325 61.5 585.069 60.584 584.581 59.944C584.101 59.304 583.413 58.984 582.517 58.984ZM610.938 56.992C612.01 56.992 612.946 57.12 613.746 57.376C614.546 57.632 615.17 58.008 615.618 58.504C616.066 59 616.29 59.608 616.29 60.328C616.29 61.008 616.086 61.58 615.678 62.044C615.27 62.508 614.61 62.856 613.698 63.088C614.77 63.208 615.574 63.532 616.11 64.06C616.646 64.58 616.914 65.304 616.914 66.232C616.914 67.128 616.662 67.856 616.158 68.416C615.662 68.968 614.994 69.372 614.154 69.628C613.322 69.876 612.402 70 611.394 70H606.282V57.472C607.042 57.336 607.802 57.224 608.562 57.136C609.322 57.04 610.114 56.992 610.938 56.992ZM610.938 58.912C610.538 58.912 610.19 58.924 609.894 58.948C609.598 58.964 609.29 58.996 608.97 59.044V68.044H611.322C612.266 68.044 612.97 67.888 613.434 67.576C613.898 67.256 614.13 66.772 614.13 66.124C614.13 65.604 614.002 65.204 613.746 64.924C613.49 64.636 613.15 64.436 612.726 64.324C612.31 64.204 611.858 64.144 611.37 64.144H608.586V62.416H611.202C611.946 62.416 612.534 62.284 612.966 62.02C613.398 61.756 613.614 61.296 613.614 60.64C613.614 60.032 613.39 59.592 612.942 59.32C612.502 59.048 611.834 58.912 610.938 58.912ZM626.613 56.992C627.733 56.992 628.629 57.268 629.301 57.82C629.973 58.364 630.461 59.136 630.765 60.136C631.069 61.128 631.221 62.296 631.221 63.64C631.221 64.928 631.037 66.076 630.669 67.084C630.301 68.092 629.753 68.884 629.025 69.46C628.305 70.036 627.409 70.324 626.337 70.324C625.009 70.324 623.937 69.856 623.121 68.92V74.872L620.433 75.172V57.328H622.773L622.941 58.96C623.421 58.304 623.977 57.812 624.609 57.484C625.249 57.156 625.917 56.992 626.613 56.992ZM625.869 59.068C625.269 59.068 624.741 59.248 624.285 59.608C623.829 59.968 623.441 60.392 623.121 60.88V66.808C623.425 67.264 623.785 67.616 624.201 67.864C624.625 68.104 625.101 68.224 625.629 68.224C626.533 68.224 627.221 67.86 627.693 67.132C628.165 66.404 628.401 65.244 628.401 63.652C628.401 62.572 628.305 61.696 628.113 61.024C627.929 60.344 627.649 59.848 627.273 59.536C626.905 59.224 626.437 59.068 625.869 59.068ZM637.056 64.528C637.112 65.392 637.296 66.1 637.608 66.652C637.92 67.196 638.328 67.596 638.832 67.852C639.344 68.108 639.904 68.236 640.512 68.236C641.136 68.236 641.712 68.14 642.24 67.948C642.768 67.756 643.3 67.484 643.836 67.132L645 68.74C644.408 69.22 643.716 69.604 642.924 69.892C642.132 70.18 641.284 70.324 640.38 70.324C639.068 70.324 637.956 70.044 637.044 69.484C636.14 68.924 635.452 68.144 634.98 67.144C634.508 66.144 634.271 64.988 634.271 63.676C634.271 62.404 634.504 61.268 634.968 60.268C635.432 59.26 636.096 58.464 636.96 57.88C637.824 57.288 638.856 56.992 640.056 56.992C641.184 56.992 642.152 57.248 642.96 57.76C643.776 58.272 644.404 59 644.844 59.944C645.292 60.88 645.516 62.008 645.516 63.328C645.516 63.544 645.508 63.76 645.492 63.976C645.484 64.184 645.472 64.368 645.456 64.528H637.056ZM640.08 58.984C639.24 58.984 638.544 59.284 637.992 59.884C637.448 60.484 637.132 61.42 637.044 62.692H642.912C642.888 61.5 642.632 60.584 642.144 59.944C641.664 59.304 640.976 58.984 640.08 58.984ZM659.762 57.328L660.662 70H658.178L657.806 64.516C657.766 63.788 657.738 63.044 657.722 62.284C657.714 61.524 657.73 60.72 657.77 59.872H657.674L655.454 67.912H653.162L650.726 59.872H650.63C650.686 60.616 650.706 61.392 650.69 62.2C650.682 63 650.658 63.78 650.618 64.54L650.33 70H647.894L648.77 57.328H651.962L654.338 65.656L656.498 57.328H659.762ZM670.793 70V59.236H668.645C667.781 59.236 667.137 59.4 666.713 59.728C666.289 60.056 666.077 60.568 666.077 61.264C666.077 62 666.277 62.54 666.677 62.884C667.085 63.228 667.737 63.4 668.633 63.4H671.177V65.272H667.565L665.873 64.84C665.025 64.512 664.377 64.052 663.929 63.46C663.489 62.86 663.269 62.14 663.269 61.3C663.269 60.044 663.733 59.068 664.661 58.372C665.597 57.676 666.941 57.328 668.693 57.328H673.481V70H670.793ZM662.429 70L665.681 64.336L668.141 64.936L665.369 70H662.429ZM697.462 56.992C698.702 56.992 699.746 57.268 700.594 57.82C701.442 58.372 702.082 59.144 702.514 60.136C702.954 61.128 703.174 62.296 703.174 63.64C703.174 64.976 702.95 66.148 702.502 67.156C702.062 68.156 701.414 68.936 700.558 69.496C699.71 70.048 698.674 70.324 697.45 70.324C696.226 70.324 695.186 70.056 694.33 69.52C693.482 68.976 692.834 68.204 692.386 67.204C691.946 66.204 691.726 65.024 691.726 63.664C691.726 62.344 691.946 61.184 692.386 60.184C692.834 59.184 693.486 58.404 694.342 57.844C695.198 57.276 696.238 56.992 697.462 56.992ZM697.462 59.08C696.494 59.08 695.766 59.452 695.278 60.196C694.79 60.932 694.546 62.088 694.546 63.664C694.546 65.232 694.786 66.388 695.266 67.132C695.754 67.876 696.482 68.248 697.45 68.248C698.418 68.248 699.142 67.876 699.622 67.132C700.11 66.388 700.354 65.224 700.354 63.64C700.354 62.08 700.114 60.932 699.634 60.196C699.154 59.452 698.43 59.08 697.462 59.08ZM717.817 57.328L717.505 59.428H713.185V70H710.497V59.428H706.009V57.328H717.817ZM731.175 57.328V67.912L729.891 70H721.851L720.447 67.912C720.791 67.6 721.079 67.216 721.311 66.76C721.543 66.304 721.735 65.66 721.887 64.828C722.047 63.988 722.179 62.848 722.283 61.408L722.583 57.328H731.175ZM728.571 59.344H724.983L724.863 61.264C724.783 62.36 724.691 63.28 724.587 64.024C724.483 64.768 724.347 65.384 724.179 65.872C724.019 66.352 723.819 66.752 723.579 67.072C723.339 67.384 723.047 67.664 722.703 67.912H728.571V59.344ZM719.547 67.912H723.099L722.943 70H722.055L721.659 73.78H719.547V67.912ZM732.219 67.912V73.78H730.095L729.699 70H728.811L728.655 67.912H732.219ZM736.998 57.328V61.348H737.622C739.366 61.348 740.714 61.684 741.666 62.356C742.618 63.028 743.094 64.104 743.094 65.584C743.094 66.6 742.874 67.432 742.434 68.08C742.002 68.728 741.39 69.212 740.598 69.532C739.806 69.844 738.866 70 737.778 70H734.586V57.328H736.998ZM737.754 63.124H736.998V68.128H737.79C738.358 68.128 738.842 68.052 739.242 67.9C739.65 67.74 739.962 67.476 740.178 67.108C740.394 66.732 740.502 66.216 740.502 65.56C740.502 64.688 740.282 64.064 739.842 63.688C739.402 63.312 738.706 63.124 737.754 63.124ZM746.658 57.328V70H744.234V57.328H746.658ZM751.821 70H748.845L753.393 63.316L749.349 57.328H752.445L755.037 61.792L757.629 57.328H760.581L756.621 63.208L761.181 70H758.025L754.917 64.828L751.821 70ZM774.023 66.892C774.023 67.388 774.099 67.752 774.251 67.984C774.403 68.208 774.647 68.376 774.983 68.488L774.383 70.312C773.759 70.24 773.223 70.068 772.775 69.796C772.327 69.524 771.987 69.112 771.755 68.56C771.291 69.144 770.703 69.584 769.991 69.88C769.279 70.176 768.519 70.324 767.711 70.324C766.431 70.324 765.415 69.964 764.663 69.244C763.919 68.516 763.547 67.564 763.547 66.388C763.547 65.052 764.067 64.024 765.107 63.304C766.147 62.584 767.635 62.224 769.571 62.224H771.383V61.396C771.383 60.58 771.135 59.992 770.639 59.632C770.151 59.272 769.459 59.092 768.563 59.092C768.147 59.092 767.643 59.148 767.051 59.26C766.459 59.364 765.839 59.528 765.191 59.752L764.531 57.856C765.323 57.56 766.099 57.344 766.859 57.208C767.619 57.064 768.323 56.992 768.971 56.992C770.667 56.992 771.931 57.368 772.763 58.12C773.603 58.872 774.023 59.912 774.023 61.24V66.892ZM768.527 68.344C769.071 68.344 769.603 68.2 770.123 67.912C770.643 67.624 771.063 67.22 771.383 66.7V63.904H769.895C768.631 63.904 767.727 64.116 767.183 64.54C766.639 64.956 766.367 65.532 766.367 66.268C766.367 66.94 766.547 67.456 766.907 67.816C767.275 68.168 767.815 68.344 768.527 68.344ZM803.128 57.328V67.912L801.844 70H793.804L792.4 67.912C792.744 67.6 793.032 67.216 793.264 66.76C793.496 66.304 793.688 65.66 793.84 64.828C794 63.988 794.132 62.848 794.236 61.408L794.536 57.328H803.128ZM800.524 59.344H796.936L796.816 61.264C796.736 62.36 796.644 63.28 796.54 64.024C796.436 64.768 796.3 65.384 796.132 65.872C795.972 66.352 795.772 66.752 795.532 67.072C795.292 67.384 795 67.664 794.656 67.912H800.524V59.344ZM791.5 67.912H795.052L794.896 70H794.008L793.612 73.78H791.5V67.912ZM804.172 67.912V73.78H802.048L801.652 70H800.764L800.608 67.912H804.172ZM812.587 56.992C813.827 56.992 814.871 57.268 815.719 57.82C816.567 58.372 817.207 59.144 817.639 60.136C818.079 61.128 818.299 62.296 818.299 63.64C818.299 64.976 818.075 66.148 817.627 67.156C817.187 68.156 816.539 68.936 815.683 69.496C814.835 70.048 813.799 70.324 812.575 70.324C811.351 70.324 810.311 70.056 809.455 69.52C808.607 68.976 807.959 68.204 807.511 67.204C807.071 66.204 806.851 65.024 806.851 63.664C806.851 62.344 807.071 61.184 807.511 60.184C807.959 59.184 808.611 58.404 809.467 57.844C810.323 57.276 811.363 56.992 812.587 56.992ZM812.587 59.08C811.619 59.08 810.891 59.452 810.403 60.196C809.915 60.932 809.671 62.088 809.671 63.664C809.671 65.232 809.911 66.388 810.391 67.132C810.879 67.876 811.607 68.248 812.575 68.248C813.543 68.248 814.267 67.876 814.747 67.132C815.235 66.388 815.479 65.224 815.479 63.64C815.479 62.08 815.239 60.932 814.759 60.196C814.279 59.452 813.555 59.08 812.587 59.08ZM828.01 68.116C828.602 68.116 829.154 68.016 829.666 67.816C830.178 67.608 830.666 67.34 831.13 67.012L832.378 68.74C831.826 69.212 831.154 69.596 830.362 69.892C829.578 70.18 828.766 70.324 827.926 70.324C826.63 70.324 825.522 70.052 824.602 69.508C823.682 68.956 822.978 68.184 822.49 67.192C822.002 66.2 821.758 65.044 821.758 63.724C821.758 62.436 822.002 61.288 822.49 60.28C822.986 59.264 823.698 58.464 824.626 57.88C825.554 57.288 826.67 56.992 827.974 56.992C828.838 56.992 829.634 57.12 830.362 57.376C831.09 57.632 831.758 58.012 832.366 58.516L831.13 60.208C830.634 59.864 830.126 59.604 829.606 59.428C829.094 59.244 828.566 59.152 828.022 59.152C827.022 59.152 826.202 59.52 825.562 60.256C824.93 60.992 824.614 62.148 824.614 63.724C824.614 64.78 824.758 65.632 825.046 66.28C825.342 66.92 825.746 67.388 826.258 67.684C826.77 67.972 827.354 68.116 828.01 68.116ZM847.332 57.328L847.02 59.428H842.7V70H840.012V59.428H835.524V57.328H847.332ZM855.759 56.992C856.999 56.992 858.043 57.268 858.891 57.82C859.739 58.372 860.379 59.144 860.811 60.136C861.251 61.128 861.471 62.296 861.471 63.64C861.471 64.976 861.247 66.148 860.799 67.156C860.359 68.156 859.711 68.936 858.855 69.496C858.007 70.048 856.971 70.324 855.747 70.324C854.523 70.324 853.483 70.056 852.627 69.52C851.779 68.976 851.131 68.204 850.683 67.204C850.243 66.204 850.023 65.024 850.023 63.664C850.023 62.344 850.243 61.184 850.683 60.184C851.131 59.184 851.783 58.404 852.639 57.844C853.495 57.276 854.535 56.992 855.759 56.992ZM855.759 59.08C854.791 59.08 854.063 59.452 853.575 60.196C853.087 60.932 852.843 62.088 852.843 63.664C852.843 65.232 853.083 66.388 853.563 67.132C854.051 67.876 854.779 68.248 855.747 68.248C856.715 68.248 857.439 67.876 857.919 67.132C858.407 66.388 858.651 65.224 858.651 63.64C858.651 62.08 858.411 60.932 857.931 60.196C857.451 59.452 856.727 59.08 855.759 59.08ZM875.202 57.328V70H872.598V64.792C872.598 63.872 872.634 63.004 872.706 62.188C872.786 61.364 872.882 60.64 872.994 60.016L868.074 70H865.074V57.328H867.678V62.548C867.678 63.42 867.642 64.28 867.57 65.128C867.498 65.968 867.398 66.684 867.27 67.276L872.154 57.328H875.202ZM870.114 54.796C869.402 54.796 868.774 54.664 868.23 54.4C867.686 54.136 867.25 53.772 866.922 53.308C866.602 52.844 866.41 52.312 866.346 51.712L868.002 51.388C868.154 51.884 868.402 52.248 868.746 52.48C869.098 52.712 869.554 52.828 870.114 52.828C870.674 52.828 871.134 52.712 871.494 52.48C871.862 52.248 872.118 51.884 872.262 51.388L873.918 51.712C873.854 52.312 873.654 52.844 873.318 53.308C872.99 53.772 872.55 54.136 871.998 54.4C871.454 54.664 870.826 54.796 870.114 54.796ZM886.904 70V64.576H882.152V70H879.464V57.328H882.152V62.488H886.904V57.328H889.592V70H886.904ZM898.931 56.992C900.171 56.992 901.215 57.268 902.063 57.82C902.911 58.372 903.551 59.144 903.983 60.136C904.423 61.128 904.643 62.296 904.643 63.64C904.643 64.976 904.419 66.148 903.971 67.156C903.531 68.156 902.883 68.936 902.027 69.496C901.179 70.048 900.143 70.324 898.919 70.324C897.695 70.324 896.655 70.056 895.799 69.52C894.951 68.976 894.303 68.204 893.855 67.204C893.415 66.204 893.195 65.024 893.195 63.664C893.195 62.344 893.415 61.184 893.855 60.184C894.303 59.184 894.955 58.404 895.811 57.844C896.667 57.276 897.707 56.992 898.931 56.992ZM898.931 59.08C897.963 59.08 897.235 59.452 896.747 60.196C896.259 60.932 896.015 62.088 896.015 63.664C896.015 65.232 896.255 66.388 896.735 67.132C897.223 67.876 897.951 68.248 898.919 68.248C899.887 68.248 900.611 67.876 901.091 67.132C901.579 66.388 901.823 65.224 901.823 63.64C901.823 62.08 901.583 60.932 901.103 60.196C900.623 59.452 899.899 59.08 898.931 59.08Z" fill="white"/>
<rect width="41.472" height="28.704" transform="translate(439)" fill="#282C33"/>
<path d="M457.56 19.616C457.56 21.0453 457.037 22.2507 455.992 23.232C454.968 24.2133 453.72 24.704 452.248 24.704C450.733 24.704 449.475 24.2133 448.472 23.232C447.491 22.2507 447 21.0453 447 19.616C447 18.9333 447.096 18.208 447.288 17.44C447.48 16.672 447.864 15.68 448.44 14.464L453.4 4H458.2L455.544 15.584C456.141 16.0107 456.621 16.576 456.984 17.28C457.368 17.9627 457.56 18.7413 457.56 19.616ZM471.8 19.616C471.8 21.0453 471.277 22.2507 470.232 23.232C469.187 24.2133 467.939 24.704 466.488 24.704C465.016 24.704 463.768 24.2133 462.744 23.232C461.741 22.2507 461.24 21.0453 461.24 19.616C461.24 18.9333 461.336 18.208 461.528 17.44C461.72 16.672 462.115 15.68 462.712 14.464L467.704 4H472.472L469.784 15.584C470.403 16.0107 470.893 16.576 471.256 17.28C471.619 17.9627 471.8 18.7413 471.8 19.616Z" fill="#ABB2BF"/>
<rect x="775.5" y="108.5" width="163" height="64" stroke="#ABB2BF"/>
<path d="M794.388 142.364V140.612H804.012V142.364H794.388ZM831.821 140.66C831.821 139.22 831.669 138.068 831.365 137.204C831.061 136.34 830.661 135.692 830.165 135.26C829.669 134.828 829.125 134.54 828.533 134.396C827.949 134.252 827.373 134.18 826.805 134.18H824.861V147.332H826.829C827.421 147.332 828.009 147.24 828.593 147.056C829.185 146.864 829.725 146.528 830.213 146.048C830.701 145.56 831.089 144.884 831.377 144.02C831.673 143.148 831.821 142.028 831.821 140.66ZM834.041 140.66C834.041 142.036 833.893 143.212 833.597 144.188C833.309 145.156 832.913 145.956 832.409 146.588C831.905 147.22 831.329 147.712 830.681 148.064C830.041 148.408 829.365 148.652 828.653 148.796C827.949 148.932 827.257 149 826.577 149H822.785V132.476H826.313C827.281 132.476 828.221 132.584 829.133 132.8C830.053 133.016 830.881 133.416 831.617 134C832.361 134.576 832.949 135.4 833.381 136.472C833.821 137.544 834.041 138.94 834.041 140.66ZM837.704 149V147.452H839.672V137.912H837.704V136.364H841.208L841.58 139.352C842.068 138.312 842.66 137.508 843.356 136.94C844.052 136.372 844.972 136.088 846.116 136.088C846.468 136.088 846.78 136.116 847.052 136.172C847.332 136.22 847.616 136.284 847.904 136.364L847.316 138.164C847.052 138.092 846.812 138.04 846.596 138.008C846.38 137.968 846.132 137.948 845.852 137.948C844.884 137.948 844.052 138.292 843.356 138.98C842.66 139.668 842.104 140.708 841.688 142.1V147.452H844.256V149H837.704ZM845.96 140.636V137.888L846.164 136.364H847.904L847.616 140.636H845.96ZM854.639 147.152C854.639 146.76 854.731 146.408 854.915 146.096C855.099 145.776 855.347 145.524 855.659 145.34C855.979 145.148 856.339 145.052 856.739 145.052C857.147 145.052 857.511 145.148 857.831 145.34C858.151 145.524 858.403 145.776 858.587 146.096C858.771 146.408 858.863 146.76 858.863 147.152C858.863 147.544 858.771 147.904 858.587 148.232C858.403 148.552 858.151 148.808 857.831 149C857.511 149.184 857.147 149.276 856.739 149.276C856.339 149.276 855.979 149.184 855.659 149C855.347 148.808 855.099 148.552 854.915 148.232C854.731 147.904 854.639 147.544 854.639 147.152ZM885.532 132.212C886.516 132.212 887.36 132.388 888.064 132.74C888.776 133.092 889.32 133.552 889.696 134.12C890.072 134.68 890.26 135.276 890.26 135.908C890.26 136.676 890.116 137.304 889.828 137.792C889.54 138.272 889.18 138.68 888.748 139.016C888.324 139.344 887.896 139.668 887.464 139.988C887.032 140.3 886.668 140.668 886.372 141.092C886.084 141.516 885.94 142.06 885.94 142.724V143.552H883.912V142.604C883.912 141.828 884.052 141.184 884.332 140.672C884.62 140.16 884.976 139.724 885.4 139.364C885.824 139.004 886.248 138.672 886.672 138.368C887.096 138.056 887.452 137.72 887.74 137.36C888.028 137 888.172 136.556 888.172 136.028C888.172 135.348 887.9 134.824 887.356 134.456C886.812 134.08 886.136 133.892 885.328 133.892C884.76 133.892 884.176 134.032 883.576 134.312C882.976 134.584 882.428 135.028 881.932 135.644L880.492 134.588C881.196 133.764 881.968 133.164 882.808 132.788C883.656 132.404 884.564 132.212 885.532 132.212ZM884.98 146.06C885.444 146.06 885.832 146.216 886.144 146.528C886.456 146.84 886.612 147.216 886.612 147.656C886.612 148.104 886.456 148.488 886.144 148.808C885.832 149.12 885.444 149.276 884.98 149.276C884.532 149.276 884.156 149.12 883.852 148.808C883.548 148.488 883.396 148.104 883.396 147.656C883.396 147.216 883.548 146.84 883.852 146.528C884.156 146.216 884.532 146.06 884.98 146.06ZM899.922 132.212C900.906 132.212 901.75 132.388 902.454 132.74C903.166 133.092 903.71 133.552 904.086 134.12C904.462 134.68 904.65 135.276 904.65 135.908C904.65 136.676 904.506 137.304 904.218 137.792C903.93 138.272 903.57 138.68 903.138 139.016C902.714 139.344 902.286 139.668 901.854 139.988C901.422 140.3 901.058 140.668 900.762 141.092C900.474 141.516 900.33 142.06 900.33 142.724V143.552H898.302V142.604C898.302 141.828 898.442 141.184 898.722 140.672C899.01 140.16 899.366 139.724 899.79 139.364C900.214 139.004 900.638 138.672 901.062 138.368C901.486 138.056 901.842 137.72 902.13 137.36C902.418 137 902.562 136.556 902.562 136.028C902.562 135.348 902.29 134.824 901.746 134.456C901.202 134.08 900.526 133.892 899.718 133.892C899.15 133.892 898.566 134.032 897.966 134.312C897.366 134.584 896.818 135.028 896.322 135.644L894.882 134.588C895.586 133.764 896.358 133.164 897.198 132.788C898.046 132.404 898.954 132.212 899.922 132.212ZM899.37 146.06C899.834 146.06 900.222 146.216 900.534 146.528C900.846 146.84 901.002 147.216 901.002 147.656C901.002 148.104 900.846 148.488 900.534 148.808C900.222 149.12 899.834 149.276 899.37 149.276C898.922 149.276 898.546 149.12 898.242 148.808C897.938 148.488 897.786 148.104 897.786 147.656C897.786 147.216 897.938 146.84 898.242 146.528C898.546 146.216 898.922 146.06 899.37 146.06ZM914.313 132.212C915.297 132.212 916.141 132.388 916.845 132.74C917.557 133.092 918.101 133.552 918.477 134.12C918.853 134.68 919.041 135.276 919.041 135.908C919.041 136.676 918.897 137.304 918.609 137.792C918.321 138.272 917.961 138.68 917.529 139.016C917.105 139.344 916.677 139.668 916.245 139.988C915.813 140.3 915.449 140.668 915.153 141.092C914.865 141.516 914.721 142.06 914.721 142.724V143.552H912.693V142.604C912.693 141.828 912.833 141.184 913.113 140.672C913.401 140.16 913.757 139.724 914.181 139.364C914.605 139.004 915.029 138.672 915.453 138.368C915.877 138.056 916.233 137.72 916.521 137.36C916.809 137 916.953 136.556 916.953 136.028C916.953 135.348 916.681 134.824 916.137 134.456C915.593 134.08 914.917 133.892 914.109 133.892C913.541 133.892 912.957 134.032 912.357 134.312C911.757 134.584 911.209 135.028 910.713 135.644L909.273 134.588C909.977 133.764 910.749 133.164 911.589 132.788C912.437 132.404 913.345 132.212 914.313 132.212ZM913.761 146.06C914.225 146.06 914.613 146.216 914.925 146.528C915.237 146.84 915.393 147.216 915.393 147.656C915.393 148.104 915.237 148.488 914.925 148.808C914.613 149.12 914.225 149.276 913.761 149.276C913.313 149.276 912.937 149.12 912.633 148.808C912.329 148.488 912.177 148.104 912.177 147.656C912.177 147.216 912.329 146.84 912.633 146.528C912.937 146.216 913.313 146.06 913.761 146.06Z" fill="white"/>
<rect width="41.472" height="28.704" transform="translate(881 94)" fill="#282C33"/>
<path d="M899.56 113.616C899.56 115.045 899.037 116.251 897.992 117.232C896.968 118.213 895.72 118.704 894.248 118.704C892.733 118.704 891.475 118.213 890.472 117.232C889.491 116.251 889 115.045 889 113.616C889 112.933 889.096 112.208 889.288 111.44C889.48 110.672 889.864 109.68 890.44 108.464L895.4 98H900.2L897.544 109.584C898.141 110.011 898.621 110.576 898.984 111.28C899.368 111.963 899.56 112.741 899.56 113.616ZM913.8 113.616C913.8 115.045 913.277 116.251 912.232 117.232C911.187 118.213 909.939 118.704 908.488 118.704C907.016 118.704 905.768 118.213 904.744 117.232C903.741 116.251 903.24 115.045 903.24 113.616C903.24 112.933 903.336 112.208 903.528 111.44C903.72 110.672 904.115 109.68 904.712 108.464L909.704 98H914.472L911.784 109.584C912.403 110.011 912.893 110.576 913.256 111.28C913.619 111.963 913.8 112.741 913.8 113.616Z" fill="#ABB2BF"/>
</svg>
