<svg width="1024" height="42" viewBox="0 0 1024 42" fill="none" xmlns="http://www.w3.org/2000/svg">
<path d="M15.072 17.52L14.176 24.32H16.544V26.88H13.824L13.168 32H10.16L10.832 26.88H6.784L6.112 32H3.104L3.776 26.88H1.488V24.32H4.112L5.04 17.52H2.672V14.944H5.376L6.032 9.92H9.056L8.352 14.944H12.416L13.088 9.92H16.096L15.408 14.944H17.728V17.52H15.072ZM7.12 24.32H11.168L12.08 17.52H8.016L7.12 24.32Z" fill="#C778DD"/>
<path d="M31.456 9.472C32.9493 9.472 34.208 9.66933 35.232 10.064C36.2667 10.448 37.2267 11.0027 38.112 11.728L36.176 14.032C35.5147 13.4773 34.8053 13.0667 34.048 12.8C33.2907 12.5333 32.4853 12.4 31.632 12.4C30.5333 12.4 29.52 12.6773 28.592 13.232C27.664 13.7867 26.9173 14.688 26.352 15.936C25.7973 17.184 25.52 18.848 25.52 20.928C25.52 22.9653 25.7867 24.608 26.32 25.856C26.8533 27.104 27.584 28.0107 28.512 28.576C29.44 29.1413 30.48 29.424 31.632 29.424C32.816 29.424 33.7973 29.232 34.576 28.848C35.3547 28.4533 36.0427 28.0107 36.64 27.52L38.432 29.808C37.696 30.5227 36.7627 31.1413 35.632 31.664C34.5013 32.176 33.1253 32.432 31.504 32.432C29.6373 32.432 27.9573 31.9947 26.464 31.12C24.9813 30.2347 23.808 28.9387 22.944 27.232C22.0907 25.5253 21.664 23.424 21.664 20.928C21.664 18.4533 22.1067 16.368 22.992 14.672C23.8773 12.9653 25.0613 11.6747 26.544 10.8C28.0267 9.91467 29.664 9.472 31.456 9.472ZM48.5635 14.656C49.9928 14.656 51.2408 14.8267 52.3075 15.168C53.3742 15.5093 54.2062 16.0107 54.8035 16.672C55.4008 17.3333 55.6995 18.144 55.6995 19.104C55.6995 20.0107 55.4275 20.7733 54.8835 21.392C54.3395 22.0107 53.4595 22.4747 52.2435 22.784C53.6728 22.944 54.7448 23.376 55.4595 24.08C56.1742 24.7733 56.5315 25.7387 56.5315 26.976C56.5315 28.1707 56.1955 29.1413 55.5235 29.888C54.8622 30.624 53.9715 31.1627 52.8515 31.504C51.7422 31.8347 50.5155 32 49.1715 32H42.3555V15.296C43.3688 15.1147 44.3822 14.9653 45.3955 14.848C46.4088 14.72 47.4648 14.656 48.5635 14.656ZM48.5635 17.216C48.0302 17.216 47.5662 17.232 47.1715 17.264C46.7768 17.2853 46.3662 17.328 45.9395 17.392V29.392H49.0755C50.3342 29.392 51.2728 29.184 51.8915 28.768C52.5102 28.3413 52.8195 27.696 52.8195 26.832C52.8195 26.1387 52.6488 25.6053 52.3075 25.232C51.9662 24.848 51.5128 24.5813 50.9475 24.432C50.3928 24.272 49.7902 24.192 49.1395 24.192H45.4275V21.888H48.9155C49.9075 21.888 50.6915 21.712 51.2675 21.36C51.8435 21.008 52.1315 20.3947 52.1315 19.52C52.1315 18.7093 51.8328 18.1227 51.2355 17.76C50.6488 17.3973 49.7582 17.216 48.5635 17.216ZM64.199 24.704C64.2737 25.856 64.519 26.8 64.935 27.536C65.351 28.2613 65.895 28.7947 66.567 29.136C67.2497 29.4773 67.9963 29.648 68.807 29.648C69.639 29.648 70.407 29.52 71.111 29.264C71.815 29.008 72.5243 28.6453 73.239 28.176L74.791 30.32C74.0017 30.96 73.079 31.472 72.023 31.856C70.967 32.24 69.8363 32.432 68.631 32.432C66.8817 32.432 65.399 32.0587 64.183 31.312C62.9777 30.5653 62.0603 29.5253 61.431 28.192C60.8017 26.8587 60.487 25.3173 60.487 23.568C60.487 21.872 60.7963 20.3573 61.415 19.024C62.0337 17.68 62.919 16.6187 64.071 15.84C65.223 15.0507 66.599 14.656 68.199 14.656C69.703 14.656 70.9937 14.9973 72.071 15.68C73.159 16.3627 73.9963 17.3333 74.583 18.592C75.1803 19.84 75.479 21.344 75.479 23.104C75.479 23.392 75.4683 23.68 75.447 23.968C75.4363 24.2453 75.4203 24.4907 75.399 24.704H64.199ZM68.231 17.312C67.111 17.312 66.183 17.712 65.447 18.512C64.7217 19.312 64.3003 20.56 64.183 22.256H72.007C71.975 20.6667 71.6337 19.4453 70.983 18.592C70.343 17.7387 69.4257 17.312 68.231 17.312ZM85.7705 32V24.288H84.3465L81.2425 32H77.8825L81.7865 22.928L78.1225 15.104H81.4825L84.3145 21.92H85.7705V15.104H88.5545V21.92H90.0105L92.9385 15.104H96.2025L92.5385 22.928L96.4425 32H93.0665L89.9465 24.288H88.5545V32H85.7705ZM112.51 27.856C112.51 28.5173 112.611 29.0027 112.814 29.312C113.017 29.6107 113.342 29.8347 113.79 29.984L112.99 32.416C112.158 32.32 111.443 32.0907 110.846 31.728C110.249 31.3653 109.795 30.816 109.486 30.08C108.867 30.8587 108.083 31.4453 107.134 31.84C106.185 32.2347 105.171 32.432 104.094 32.432C102.387 32.432 101.033 31.952 100.03 30.992C99.038 30.0213 98.542 28.752 98.542 27.184C98.542 25.4027 99.2353 24.032 100.622 23.072C102.009 22.112 103.993 21.632 106.574 21.632H108.99V20.528C108.99 19.44 108.659 18.656 107.998 18.176C107.347 17.696 106.425 17.456 105.23 17.456C104.675 17.456 104.003 17.5307 103.214 17.68C102.425 17.8187 101.598 18.0373 100.734 18.336L99.854 15.808C100.91 15.4133 101.945 15.1253 102.958 14.944C103.971 14.752 104.91 14.656 105.774 14.656C108.035 14.656 109.721 15.1573 110.83 16.16C111.95 17.1627 112.51 18.5493 112.51 20.32V27.856ZM105.182 29.792C105.907 29.792 106.617 29.6 107.31 29.216C108.003 28.832 108.563 28.2933 108.99 27.6V23.872H107.006C105.321 23.872 104.115 24.1547 103.39 24.72C102.665 25.2747 102.302 26.0427 102.302 27.024C102.302 27.92 102.542 28.608 103.022 29.088C103.513 29.5573 104.233 29.792 105.182 29.792ZM128.37 32V17.648H125.506C124.354 17.648 123.495 17.8667 122.93 18.304C122.364 18.7413 122.082 19.424 122.082 20.352C122.082 21.3333 122.348 22.0533 122.882 22.512C123.426 22.9707 124.295 23.2 125.49 23.2H128.882V25.696H124.066L121.81 25.12C120.679 24.6827 119.815 24.0693 119.218 23.28C118.631 22.48 118.338 21.52 118.338 20.4C118.338 18.7253 118.956 17.424 120.194 16.496C121.442 15.568 123.234 15.104 125.57 15.104H131.954V32H128.37ZM117.218 32L121.554 24.448L124.834 25.248L121.138 32H117.218ZM170.073 27.856C170.073 28.5173 170.174 29.0027 170.377 29.312C170.579 29.6107 170.905 29.8347 171.353 29.984L170.553 32.416C169.721 32.32 169.006 32.0907 168.409 31.728C167.811 31.3653 167.358 30.816 167.049 30.08C166.43 30.8587 165.646 31.4453 164.697 31.84C163.747 32.2347 162.734 32.432 161.657 32.432C159.95 32.432 158.595 31.952 157.593 30.992C156.601 30.0213 156.105 28.752 156.105 27.184C156.105 25.4027 156.798 24.032 158.185 23.072C159.571 22.112 161.555 21.632 164.137 21.632H166.553V20.528C166.553 19.44 166.222 18.656 165.561 18.176C164.91 17.696 163.987 17.456 162.793 17.456C162.238 17.456 161.566 17.5307 160.777 17.68C159.987 17.8187 159.161 18.0373 158.297 18.336L157.417 15.808C158.473 15.4133 159.507 15.1253 160.521 14.944C161.534 14.752 162.473 14.656 163.337 14.656C165.598 14.656 167.283 15.1573 168.393 16.16C169.513 17.1627 170.073 18.5493 170.073 20.32V27.856ZM162.745 29.792C163.47 29.792 164.179 29.6 164.873 29.216C165.566 28.832 166.126 28.2933 166.553 27.6V23.872H164.569C162.883 23.872 161.678 24.1547 160.953 24.72C160.227 25.2747 159.865 26.0427 159.865 27.024C159.865 27.92 160.105 28.608 160.585 29.088C161.075 29.5573 161.795 29.792 162.745 29.792ZM181.66 7.92L184.54 8.288V16.32C184.999 15.7333 185.484 15.312 185.996 15.056C186.519 14.7893 187.073 14.656 187.66 14.656C188.812 14.656 189.697 15.024 190.316 15.76C190.935 16.4853 191.361 17.5147 191.596 18.848C191.841 20.1707 191.964 21.7333 191.964 23.536C191.964 25.3387 191.793 26.9067 191.452 28.24C191.121 29.5627 190.615 30.592 189.932 31.328C189.249 32.064 188.391 32.432 187.356 32.432C186.823 32.432 186.316 32.2933 185.836 32.016C185.367 31.7387 184.935 31.3173 184.54 30.752V38.528L181.66 38.896V30.768C181.265 31.3227 180.817 31.7387 180.316 32.016C179.815 32.2933 179.303 32.432 178.78 32.432C177.756 32.432 176.908 32.064 176.236 31.328C175.564 30.592 175.063 29.5627 174.732 28.24C174.401 26.9067 174.236 25.3387 174.236 23.536C174.236 21.7333 174.375 20.1707 174.652 18.848C174.929 17.5147 175.393 16.4853 176.044 15.76C176.695 15.024 177.585 14.656 178.716 14.656C179.292 14.656 179.82 14.784 180.3 15.04C180.78 15.2853 181.233 15.6907 181.66 16.256V7.92ZM179.66 17.28C178.967 17.28 178.46 17.76 178.14 18.72C177.831 19.6693 177.676 21.2747 177.676 23.536C177.676 25.7973 177.831 27.408 178.14 28.368C178.46 29.328 178.967 29.808 179.66 29.808C180.055 29.808 180.396 29.6907 180.684 29.456C180.972 29.2213 181.297 28.8747 181.66 28.416V18.576C181.319 18.1493 181.004 17.8293 180.716 17.616C180.439 17.392 180.087 17.28 179.66 17.28ZM186.716 17.28C186.268 17.28 185.884 17.392 185.564 17.616C185.244 17.8293 184.903 18.1547 184.54 18.592V28.416C184.871 28.8747 185.18 29.2213 185.468 29.456C185.756 29.6907 186.103 29.808 186.508 29.808C187.191 29.808 187.703 29.3333 188.044 28.384C188.385 27.4347 188.556 25.8187 188.556 23.536C188.556 21.2747 188.417 19.6693 188.14 18.72C187.873 17.76 187.399 17.28 186.716 17.28ZM209.04 15.104V32H205.568V25.056C205.568 23.8293 205.616 22.672 205.712 21.584C205.818 20.4853 205.946 19.52 206.096 18.688L199.536 32H195.536V15.104H199.008V22.064C199.008 23.2267 198.96 24.3733 198.864 25.504C198.768 26.624 198.634 27.5787 198.464 28.368L204.976 15.104H209.04ZM229.811 15.104V32H213.139V15.104H216.339V29.2H219.987V15.104H222.963V29.2H226.595V15.104H229.811ZM246.823 27.856C246.823 28.5173 246.924 29.0027 247.127 29.312C247.329 29.6107 247.655 29.8347 248.103 29.984L247.303 32.416C246.471 32.32 245.756 32.0907 245.159 31.728C244.561 31.3653 244.108 30.816 243.799 30.08C243.18 30.8587 242.396 31.4453 241.447 31.84C240.497 32.2347 239.484 32.432 238.407 32.432C236.7 32.432 235.345 31.952 234.343 30.992C233.351 30.0213 232.855 28.752 232.855 27.184C232.855 25.4027 233.548 24.032 234.935 23.072C236.321 22.112 238.305 21.632 240.887 21.632H243.303V20.528C243.303 19.44 242.972 18.656 242.311 18.176C241.66 17.696 240.737 17.456 239.543 17.456C238.988 17.456 238.316 17.5307 237.527 17.68C236.737 17.8187 235.911 18.0373 235.047 18.336L234.167 15.808C235.223 15.4133 236.257 15.1253 237.271 14.944C238.284 14.752 239.223 14.656 240.087 14.656C242.348 14.656 244.033 15.1573 245.143 16.16C246.263 17.1627 246.823 18.5493 246.823 20.32V27.856ZM239.495 29.792C240.22 29.792 240.929 29.6 241.623 29.216C242.316 28.832 242.876 28.2933 243.303 27.6V23.872H241.319C239.633 23.872 238.428 24.1547 237.703 24.72C236.977 25.2747 236.615 26.0427 236.615 27.024C236.615 27.92 236.855 28.608 237.335 29.088C237.825 29.5573 238.545 29.792 239.495 29.792Z" fill="white"/>
<path fill-rule="evenodd" clip-rule="evenodd" d="M833 21.5H267V20.5H833V21.5Z" fill="#C778DD"/>
<path d="M855.728 14.736C856.475 14.736 857.104 14.8347 857.616 15.032C858.133 15.224 858.613 15.5013 859.056 15.864L858.088 17.016C857.757 16.7387 857.403 16.5333 857.024 16.4C856.645 16.2667 856.243 16.2 855.816 16.2C855.267 16.2 854.76 16.3387 854.296 16.616C853.832 16.8933 853.459 17.344 853.176 17.968C852.899 18.592 852.76 19.424 852.76 20.464C852.76 21.4827 852.893 22.304 853.16 22.928C853.427 23.552 853.792 24.0053 854.256 24.288C854.72 24.5707 855.24 24.712 855.816 24.712C856.408 24.712 856.899 24.616 857.288 24.424C857.677 24.2267 858.021 24.0053 858.32 23.76L859.216 24.904C858.848 25.2613 858.381 25.5707 857.816 25.832C857.251 26.088 856.563 26.216 855.752 26.216C854.819 26.216 853.979 25.9973 853.232 25.56C852.491 25.1173 851.904 24.4693 851.472 23.616C851.045 22.7627 850.832 21.712 850.832 20.464C850.832 19.2267 851.053 18.184 851.496 17.336C851.939 16.4827 852.531 15.8373 853.272 15.4C854.013 14.9573 854.832 14.736 855.728 14.736ZM868.05 17.552L868.65 26H866.994L866.746 22.344C866.719 21.8587 866.7 21.3627 866.69 20.856C866.684 20.3493 866.695 19.8133 866.722 19.248H866.658L865.178 24.608H863.65L862.026 19.248H861.962C861.999 19.744 862.012 20.2613 862.002 20.8C861.996 21.3333 861.98 21.8533 861.954 22.36L861.762 26H860.138L860.722 17.552H862.85L864.434 23.104L865.874 17.552H868.05ZM873.996 17.328C874.822 17.328 875.518 17.512 876.084 17.88C876.649 18.248 877.076 18.7627 877.364 19.424C877.657 20.0853 877.804 20.864 877.804 21.76C877.804 22.6507 877.654 23.432 877.356 24.104C877.062 24.7707 876.63 25.2907 876.06 25.664C875.494 26.032 874.804 26.216 873.988 26.216C873.172 26.216 872.478 26.0373 871.908 25.68C871.342 25.3173 870.91 24.8027 870.612 24.136C870.318 23.4693 870.172 22.6827 870.172 21.776C870.172 20.896 870.318 20.1227 870.612 19.456C870.91 18.7893 871.345 18.2693 871.916 17.896C872.486 17.5173 873.18 17.328 873.996 17.328ZM873.996 18.72C873.35 18.72 872.865 18.968 872.54 19.464C872.214 19.9547 872.052 20.7253 872.052 21.776C872.052 22.8213 872.212 23.592 872.532 24.088C872.857 24.584 873.342 24.832 873.988 24.832C874.633 24.832 875.116 24.584 875.436 24.088C875.761 23.592 875.924 22.816 875.924 21.76C875.924 20.72 875.764 19.9547 875.444 19.464C875.124 18.968 874.641 18.72 873.996 18.72ZM887.565 17.552L887.357 18.952H884.477V26H882.685V18.952H879.693V17.552H887.565ZM893.919 17.328C894.666 17.328 895.263 17.512 895.711 17.88C896.159 18.2427 896.484 18.7573 896.687 19.424C896.89 20.0853 896.991 20.864 896.991 21.76C896.991 22.6187 896.868 23.384 896.623 24.056C896.378 24.728 896.012 25.256 895.527 25.64C895.047 26.024 894.45 26.216 893.735 26.216C892.85 26.216 892.135 25.904 891.591 25.28V29.248L889.799 29.448V17.552H891.359L891.471 18.64C891.791 18.2027 892.162 17.8747 892.583 17.656C893.01 17.4373 893.455 17.328 893.919 17.328ZM893.423 18.712C893.023 18.712 892.671 18.832 892.367 19.072C892.063 19.312 891.804 19.5947 891.591 19.92V23.872C891.794 24.176 892.034 24.4107 892.311 24.576C892.594 24.736 892.911 24.816 893.263 24.816C893.866 24.816 894.324 24.5733 894.639 24.088C894.954 23.6027 895.111 22.8293 895.111 21.768C895.111 21.048 895.047 20.464 894.919 20.016C894.796 19.5627 894.61 19.232 894.359 19.024C894.114 18.816 893.802 18.712 893.423 18.712ZM900.881 22.352C900.918 22.928 901.041 23.4 901.249 23.768C901.457 24.1307 901.729 24.3973 902.065 24.568C902.406 24.7387 902.779 24.824 903.185 24.824C903.601 24.824 903.985 24.76 904.337 24.632C904.689 24.504 905.043 24.3227 905.401 24.088L906.177 25.16C905.782 25.48 905.321 25.736 904.793 25.928C904.265 26.12 903.699 26.216 903.097 26.216C902.222 26.216 901.481 26.0293 900.873 25.656C900.27 25.2827 899.811 24.7627 899.497 24.096C899.182 23.4293 899.025 22.6587 899.025 21.784C899.025 20.936 899.179 20.1787 899.489 19.512C899.798 18.84 900.241 18.3093 900.817 17.92C901.393 17.5253 902.081 17.328 902.881 17.328C903.633 17.328 904.278 17.4987 904.817 17.84C905.361 18.1813 905.779 18.6667 906.073 19.296C906.371 19.92 906.521 20.672 906.521 21.552C906.521 21.696 906.515 21.84 906.505 21.984C906.499 22.1227 906.491 22.2453 906.481 22.352H900.881ZM902.897 18.656C902.337 18.656 901.873 18.856 901.505 19.256C901.142 19.656 900.931 20.28 900.873 21.128H904.785C904.769 20.3333 904.598 19.7227 904.273 19.296C903.953 18.8693 903.494 18.656 902.897 18.656ZM916.347 17.552L916.139 18.952H913.259V26H911.467V18.952H908.475V17.552H916.347ZM920.732 17.552V20.16H922.1C922.991 20.16 923.708 20.2747 924.252 20.504C924.802 20.7333 925.202 21.064 925.452 21.496C925.703 21.928 925.828 22.448 925.828 23.056C925.828 23.7653 925.666 24.336 925.34 24.768C925.015 25.2 924.583 25.5147 924.044 25.712C923.511 25.904 922.93 26 922.3 26H918.94V17.552H920.732ZM922.092 21.44H920.732V24.672H922.228C922.751 24.672 923.167 24.5547 923.476 24.32C923.791 24.0853 923.948 23.6613 923.948 23.048C923.948 22.504 923.812 22.1013 923.54 21.84C923.268 21.5733 922.786 21.44 922.092 21.44ZM944.44 17.552V24.608L943.584 26H938.224L937.288 24.608C937.517 24.4 937.709 24.144 937.864 23.84C938.018 23.536 938.146 23.1067 938.248 22.552C938.354 21.992 938.442 21.232 938.512 20.272L938.712 17.552H944.44ZM942.704 18.896H940.312L940.232 20.176C940.178 20.9067 940.117 21.52 940.048 22.016C939.978 22.512 939.888 22.9227 939.776 23.248C939.669 23.568 939.536 23.8347 939.376 24.048C939.216 24.256 939.021 24.4427 938.792 24.608H942.704V18.896ZM936.688 24.608H939.056L938.952 26H938.36L938.096 28.52H936.688V24.608ZM945.136 24.608V28.52H943.72L943.456 26H942.864L942.76 24.608H945.136ZM953.818 23.928C953.818 24.2587 953.868 24.5013 953.97 24.656C954.071 24.8053 954.234 24.9173 954.458 24.992L954.058 26.208C953.642 26.16 953.284 26.0453 952.986 25.864C952.687 25.6827 952.46 25.408 952.306 25.04C951.996 25.4293 951.604 25.7227 951.13 25.92C950.655 26.1173 950.148 26.216 949.61 26.216C948.756 26.216 948.079 25.976 947.578 25.496C947.082 25.0107 946.834 24.376 946.834 23.592C946.834 22.7013 947.18 22.016 947.874 21.536C948.567 21.056 949.559 20.816 950.85 20.816H952.058V20.264C952.058 19.72 951.892 19.328 951.562 19.088C951.236 18.848 950.775 18.728 950.178 18.728C949.9 18.728 949.564 18.7653 949.17 18.84C948.775 18.9093 948.362 19.0187 947.93 19.168L947.49 17.904C948.018 17.7067 948.535 17.5627 949.042 17.472C949.548 17.376 950.018 17.328 950.45 17.328C951.58 17.328 952.423 17.5787 952.978 18.08C953.538 18.5813 953.818 19.2747 953.818 20.16V23.928ZM950.154 24.896C950.516 24.896 950.871 24.8 951.218 24.608C951.564 24.416 951.844 24.1467 952.058 23.8V21.936H951.066C950.223 21.936 949.62 22.0773 949.258 22.36C948.895 22.6373 948.714 23.0213 948.714 23.512C948.714 23.96 948.834 24.304 949.074 24.544C949.319 24.7787 949.679 24.896 950.154 24.896ZM963.795 17.552V26H962.003V18.944H959.355L959.219 20.72C959.161 21.6693 959.078 22.4533 958.971 23.072C958.865 23.6853 958.721 24.184 958.539 24.568C958.358 24.952 958.126 25.2693 957.843 25.52C957.561 25.7707 957.209 26.008 956.787 26.232L956.035 25.088C956.233 24.9547 956.409 24.808 956.563 24.648C956.718 24.488 956.854 24.264 956.971 23.976C957.094 23.688 957.198 23.2907 957.283 22.784C957.374 22.2773 957.451 21.616 957.515 20.8L957.763 17.552H963.795ZM968.037 22.352C968.074 22.928 968.197 23.4 968.405 23.768C968.613 24.1307 968.885 24.3973 969.221 24.568C969.562 24.7387 969.936 24.824 970.341 24.824C970.757 24.824 971.141 24.76 971.493 24.632C971.845 24.504 972.2 24.3227 972.557 24.088L973.333 25.16C972.938 25.48 972.477 25.736 971.949 25.928C971.421 26.12 970.856 26.216 970.253 26.216C969.378 26.216 968.637 26.0293 968.029 25.656C967.426 25.2827 966.968 24.7627 966.653 24.096C966.338 23.4293 966.181 22.6587 966.181 21.784C966.181 20.936 966.336 20.1787 966.645 19.512C966.954 18.84 967.397 18.3093 967.973 17.92C968.549 17.5253 969.237 17.328 970.037 17.328C970.789 17.328 971.434 17.4987 971.973 17.84C972.517 18.1813 972.936 18.6667 973.229 19.296C973.528 19.92 973.677 20.672 973.677 21.552C973.677 21.696 973.672 21.84 973.661 21.984C973.656 22.1227 973.648 22.2453 973.637 22.352H968.037ZM970.053 18.656C969.493 18.656 969.029 18.856 968.661 19.256C968.298 19.656 968.088 20.28 968.029 21.128H971.941C971.925 20.3333 971.754 19.7227 971.429 19.296C971.109 18.8693 970.65 18.656 970.053 18.656ZM977.631 22.352C977.668 22.928 977.791 23.4 977.999 23.768C978.207 24.1307 978.479 24.3973 978.815 24.568C979.156 24.7387 979.529 24.824 979.935 24.824C980.351 24.824 980.735 24.76 981.087 24.632C981.439 24.504 981.793 24.3227 982.151 24.088L982.927 25.16C982.532 25.48 982.071 25.736 981.543 25.928C981.015 26.12 980.449 26.216 979.847 26.216C978.972 26.216 978.231 26.0293 977.623 25.656C977.02 25.2827 976.561 24.7627 976.247 24.096C975.932 23.4293 975.775 22.6587 975.775 21.784C975.775 20.936 975.929 20.1787 976.239 19.512C976.548 18.84 976.991 18.3093 977.567 17.92C978.143 17.5253 978.831 17.328 979.631 17.328C980.383 17.328 981.028 17.4987 981.567 17.84C982.111 18.1813 982.529 18.6667 982.823 19.296C983.121 19.92 983.271 20.672 983.271 21.552C983.271 21.696 983.265 21.84 983.255 21.984C983.249 22.1227 983.241 22.2453 983.231 22.352H977.631ZM979.647 18.656C979.087 18.656 978.623 18.856 978.255 19.256C977.892 19.656 977.681 20.28 977.623 21.128H981.535C981.519 20.3333 981.348 19.7227 981.023 19.296C980.703 18.8693 980.244 18.656 979.647 18.656ZM1016.85 21.088C1017.05 21.088 1017.23 21.04 1017.38 20.944C1017.53 20.848 1017.68 20.728 1017.82 20.584C1017.97 20.44 1018.14 20.3013 1018.33 20.168C1018.53 20.0293 1018.77 19.92 1019.05 19.84C1019.34 19.7547 1019.7 19.7253 1020.14 19.752V21.376C1019.87 21.3813 1019.65 21.4293 1019.47 21.52C1019.29 21.6053 1019.13 21.712 1018.98 21.84C1018.83 21.9627 1018.67 22.088 1018.49 22.216C1018.32 22.3387 1018.1 22.4427 1017.84 22.528C1017.58 22.6133 1017.25 22.656 1016.85 22.656C1016.45 22.656 1016.12 22.6 1015.85 22.488C1015.58 22.3707 1015.35 22.2293 1015.16 22.064C1014.97 21.8933 1014.8 21.7253 1014.65 21.56C1014.5 21.3893 1014.34 21.248 1014.18 21.136C1014.03 21.0187 1013.85 20.96 1013.65 20.96C1013.44 20.96 1013.26 21.0133 1013.11 21.12C1012.96 21.2267 1012.8 21.36 1012.65 21.52C1012.49 21.68 1012.32 21.84 1012.13 22C1011.94 22.16 1011.71 22.2933 1011.45 22.4C1011.18 22.5067 1010.85 22.56 1010.45 22.56C1010.05 22.56 1009.71 22.5093 1009.44 22.408C1009.16 22.3067 1008.93 22.184 1008.74 22.04C1008.56 21.8907 1008.39 21.7413 1008.25 21.592C1008.1 21.4427 1007.94 21.32 1007.79 21.224C1007.64 21.1227 1007.45 21.072 1007.25 21.072C1007.04 21.072 1006.86 21.1253 1006.7 21.232C1006.54 21.3387 1006.39 21.472 1006.24 21.632C1006.08 21.7867 1005.91 21.944 1005.73 22.104C1005.53 22.2587 1005.31 22.3893 1005.05 22.496C1004.78 22.6027 1004.45 22.656 1004.05 22.656C1003.65 22.656 1003.32 22.6 1003.05 22.488C1002.78 22.3707 1002.55 22.2293 1002.37 22.064C1002.17 21.8933 1002 21.7253 1001.85 21.56C1001.7 21.3893 1001.54 21.248 1001.39 21.136C1001.23 21.0187 1001.05 20.96 1000.85 20.96C1000.64 20.96 1000.46 21.0133 1000.31 21.12C1000.16 21.2267 1000 21.36 999.846 21.52C999.691 21.68 999.52 21.84 999.334 22C999.142 22.16 998.912 22.2933 998.646 22.4C998.379 22.5067 998.046 22.56 997.646 22.56C997.262 22.56 996.875 22.4587 996.486 22.256C996.096 22.048 995.75 21.7867 995.446 21.472C995.142 21.152 994.926 20.8213 994.798 20.48L996.206 19.816C996.366 20.1627 996.579 20.4613 996.846 20.712C997.107 20.9627 997.374 21.088 997.646 21.088C997.854 21.088 998.035 21.0347 998.19 20.928C998.339 20.8213 998.491 20.688 998.646 20.528C998.8 20.368 998.974 20.208 999.166 20.048C999.352 19.888 999.582 19.7547 999.854 19.648C1000.12 19.5413 1000.45 19.488 1000.85 19.488C1001.25 19.488 1001.58 19.5413 1001.85 19.648C1002.11 19.7547 1002.34 19.888 1002.53 20.048C1002.72 20.208 1002.89 20.368 1003.05 20.528C1003.2 20.688 1003.36 20.8213 1003.51 20.928C1003.66 21.0347 1003.84 21.088 1004.05 21.088C1004.25 21.088 1004.43 21.0347 1004.58 20.928C1004.74 20.8213 1004.89 20.688 1005.05 20.528C1005.2 20.368 1005.37 20.208 1005.57 20.048C1005.75 19.888 1005.98 19.7547 1006.25 19.648C1006.52 19.5413 1006.85 19.488 1007.25 19.488C1007.65 19.488 1007.99 19.5413 1008.26 19.648C1008.53 19.7547 1008.76 19.888 1008.95 20.048C1009.14 20.208 1009.3 20.368 1009.45 20.528C1009.6 20.688 1009.76 20.8213 1009.91 20.928C1010.06 21.0347 1010.24 21.088 1010.45 21.088C1010.65 21.088 1010.84 21.0347 1010.99 20.928C1011.14 20.8213 1011.29 20.688 1011.45 20.528C1011.6 20.368 1011.77 20.208 1011.97 20.048C1012.15 19.888 1012.38 19.7547 1012.65 19.648C1012.92 19.5413 1013.25 19.488 1013.65 19.488C1014.04 19.488 1014.37 19.5413 1014.64 19.648C1014.91 19.7547 1015.14 19.888 1015.33 20.048C1015.52 20.208 1015.69 20.368 1015.85 20.528C1016 20.688 1016.16 20.8213 1016.31 20.928C1016.46 21.0347 1016.64 21.088 1016.85 21.088ZM1017.53 15.928L1022.06 20.992L1017.53 26.056L1016.28 24.992L1018.13 22.968C1018.38 22.6907 1018.61 22.4587 1018.81 22.272C1019.01 22.08 1019.24 21.9067 1019.49 21.752V20.232C1019.24 20.0773 1019.01 19.9067 1018.81 19.72C1018.61 19.528 1018.38 19.2933 1018.13 19.016L1016.28 16.992L1017.53 15.928Z" fill="white"/>
</svg>
