<svg width="1024" height="42" viewBox="0 0 1024 42" fill="none" xmlns="http://www.w3.org/2000/svg">
<path d="M15.072 17.52L14.176 24.32H16.544V26.88H13.824L13.168 32H10.16L10.832 26.88H6.784L6.112 32H3.104L3.776 26.88H1.488V24.32H4.112L5.04 17.52H2.672V14.944H5.376L6.032 9.92H9.056L8.352 14.944H12.416L13.088 9.92H16.096L15.408 14.944H17.728V17.52H15.072ZM7.12 24.32H11.168L12.08 17.52H8.016L7.12 24.32Z" fill="#C778DD"/>
<path d="M33.472 26.688H25.584L24.048 32H20.272L27.296 9.92H31.904L38.944 32H35.008L33.472 26.688ZM26.352 23.824H32.688L29.536 12.8L26.352 23.824ZM50.2755 14.656C51.7688 14.656 52.9635 15.024 53.8595 15.76C54.7555 16.4853 55.4062 17.5147 55.8115 18.848C56.2168 20.1707 56.4195 21.728 56.4195 23.52C56.4195 25.2373 56.1742 26.768 55.6835 28.112C55.1928 29.456 54.4622 30.512 53.4915 31.28C52.5315 32.048 51.3368 32.432 49.9075 32.432C48.1368 32.432 46.7075 31.808 45.6195 30.56V38.496L42.0355 38.896V15.104H45.1555L45.3795 17.28C46.0195 16.4053 46.7608 15.7493 47.6035 15.312C48.4568 14.8747 49.3475 14.656 50.2755 14.656ZM49.2835 17.424C48.4835 17.424 47.7795 17.664 47.1715 18.144C46.5635 18.624 46.0462 19.1893 45.6195 19.84V27.744C46.0248 28.352 46.5048 28.8213 47.0595 29.152C47.6248 29.472 48.2595 29.632 48.9635 29.632C50.1688 29.632 51.0862 29.1467 51.7155 28.176C52.3448 27.2053 52.6595 25.6587 52.6595 23.536C52.6595 22.096 52.5315 20.928 52.2755 20.032C52.0302 19.1253 51.6568 18.464 51.1555 18.048C50.6648 17.632 50.0408 17.424 49.2835 17.424ZM63.719 32H59.751L65.815 23.088L60.423 15.104H64.551L68.007 21.056L71.463 15.104H75.399L70.119 22.944L76.199 32H71.991L67.847 25.104L63.719 32ZM93.9145 15.104V32H90.4425V25.056C90.4425 23.8293 90.4905 22.672 90.5865 21.584C90.6932 20.4853 90.8212 19.52 90.9705 18.688L84.4105 32H80.4105V15.104H83.8825V22.064C83.8825 23.2267 83.8345 24.3733 83.7385 25.504C83.6425 26.624 83.5092 27.5787 83.3385 28.368L89.8505 15.104H93.9145ZM106.126 14.656C107.555 14.656 108.803 14.8267 109.87 15.168C110.937 15.5093 111.769 16.0107 112.366 16.672C112.963 17.3333 113.262 18.144 113.262 19.104C113.262 20.0107 112.99 20.7733 112.446 21.392C111.902 22.0107 111.022 22.4747 109.806 22.784C111.235 22.944 112.307 23.376 113.022 24.08C113.737 24.7733 114.094 25.7387 114.094 26.976C114.094 28.1707 113.758 29.1413 113.086 29.888C112.425 30.624 111.534 31.1627 110.414 31.504C109.305 31.8347 108.078 32 106.734 32H99.918V15.296C100.931 15.1147 101.945 14.9653 102.958 14.848C103.971 14.72 105.027 14.656 106.126 14.656ZM106.126 17.216C105.593 17.216 105.129 17.232 104.734 17.264C104.339 17.2853 103.929 17.328 103.502 17.392V29.392H106.638C107.897 29.392 108.835 29.184 109.454 28.768C110.073 28.3413 110.382 27.696 110.382 26.832C110.382 26.1387 110.211 25.6053 109.87 25.232C109.529 24.848 109.075 24.5813 108.51 24.432C107.955 24.272 107.353 24.192 106.702 24.192H102.99V21.888H106.478C107.47 21.888 108.254 21.712 108.83 21.36C109.406 21.008 109.694 20.3947 109.694 19.52C109.694 18.7093 109.395 18.1227 108.798 17.76C108.211 17.3973 107.321 17.216 106.126 17.216Z" fill="white"/>
<path fill-rule="evenodd" clip-rule="evenodd" d="M1024 21.5H132V20.5H1024V21.5Z" fill="#C778DD"/>
</svg>
