<svg width="1024" height="42" viewBox="0 0 1024 42" fill="none" xmlns="http://www.w3.org/2000/svg">
<path d="M110.572 17.52L109.676 24.32H112.044V26.88H109.324L108.668 32H105.66L106.332 26.88H102.284L101.612 32H98.604L99.276 26.88H96.988V24.32H99.612L100.54 17.52H98.172V14.944H100.876L101.532 9.92H104.556L103.852 14.944H107.916L108.588 9.92H111.596L110.908 14.944H113.228V17.52H110.572ZM102.62 24.32H106.668L107.58 17.52H103.516L102.62 24.32Z" fill="#C778DD"/>
<path d="M132.636 9.92L133.884 32H130.492L129.964 21.248C129.932 20.4373 129.905 19.6533 129.884 18.896C129.873 18.1387 129.868 17.4133 129.868 16.72C129.868 16.0267 129.873 15.3867 129.884 14.8C129.905 14.2027 129.927 13.664 129.948 13.184L126.7 28.112H123.468L119.98 13.184C120.012 13.6427 120.039 14.1813 120.06 14.8C120.081 15.408 120.097 16.064 120.108 16.768C120.119 17.472 120.119 18.208 120.108 18.976C120.108 19.744 120.097 20.512 120.076 21.28L119.644 32H116.316L117.564 9.92H122.012L125.164 24.72L128.172 9.92H132.636ZM150.448 27.856C150.448 28.5173 150.549 29.0027 150.752 29.312C150.954 29.6107 151.28 29.8347 151.728 29.984L150.928 32.416C150.096 32.32 149.381 32.0907 148.784 31.728C148.186 31.3653 147.733 30.816 147.424 30.08C146.805 30.8587 146.021 31.4453 145.072 31.84C144.122 32.2347 143.109 32.432 142.032 32.432C140.325 32.432 138.97 31.952 137.968 30.992C136.976 30.0213 136.48 28.752 136.48 27.184C136.48 25.4027 137.173 24.032 138.56 23.072C139.946 22.112 141.93 21.632 144.512 21.632H146.928V20.528C146.928 19.44 146.597 18.656 145.936 18.176C145.285 17.696 144.362 17.456 143.168 17.456C142.613 17.456 141.941 17.5307 141.152 17.68C140.362 17.8187 139.536 18.0373 138.672 18.336L137.792 15.808C138.848 15.4133 139.882 15.1253 140.896 14.944C141.909 14.752 142.848 14.656 143.712 14.656C145.973 14.656 147.658 15.1573 148.768 16.16C149.888 17.1627 150.448 18.5493 150.448 20.32V27.856ZM143.12 29.792C143.845 29.792 144.554 29.6 145.248 29.216C145.941 28.832 146.501 28.2933 146.928 27.6V23.872H144.944C143.258 23.872 142.053 24.1547 141.328 24.72C140.602 25.2747 140.24 26.0427 140.24 27.024C140.24 27.92 140.48 28.608 140.96 29.088C141.45 29.5573 142.17 29.792 143.12 29.792ZM162.083 32H158.499V15.104H170.835L170.419 17.968H162.083V32ZM188.823 27.856C188.823 28.5173 188.924 29.0027 189.127 29.312C189.329 29.6107 189.655 29.8347 190.103 29.984L189.303 32.416C188.471 32.32 187.756 32.0907 187.159 31.728C186.561 31.3653 186.108 30.816 185.799 30.08C185.18 30.8587 184.396 31.4453 183.447 31.84C182.497 32.2347 181.484 32.432 180.407 32.432C178.7 32.432 177.345 31.952 176.343 30.992C175.351 30.0213 174.855 28.752 174.855 27.184C174.855 25.4027 175.548 24.032 176.935 23.072C178.321 22.112 180.305 21.632 182.887 21.632H185.303V20.528C185.303 19.44 184.972 18.656 184.311 18.176C183.66 17.696 182.737 17.456 181.543 17.456C180.988 17.456 180.316 17.5307 179.527 17.68C178.737 17.8187 177.911 18.0373 177.047 18.336L176.167 15.808C177.223 15.4133 178.257 15.1253 179.271 14.944C180.284 14.752 181.223 14.656 182.087 14.656C184.348 14.656 186.033 15.1573 187.143 16.16C188.263 17.1627 188.823 18.5493 188.823 20.32V27.856ZM181.495 29.792C182.22 29.792 182.929 29.6 183.623 29.216C184.316 28.832 184.876 28.2933 185.303 27.6V23.872H183.319C181.633 23.872 180.428 24.1547 179.703 24.72C178.977 25.2747 178.615 26.0427 178.615 27.024C178.615 27.92 178.855 28.608 179.335 29.088C179.825 29.5573 180.545 29.792 181.495 29.792ZM198.106 21.92H201.146C202.191 21.92 203.002 21.712 203.578 21.296C204.165 20.8693 204.458 20.3147 204.458 19.632C204.458 18.8533 204.143 18.2773 203.514 17.904C202.895 17.52 202.021 17.328 200.89 17.328C200.047 17.328 199.183 17.4453 198.298 17.68C197.413 17.9147 196.597 18.2667 195.85 18.736L194.234 16.72C195.13 16.0587 196.181 15.552 197.386 15.2C198.591 14.8373 199.823 14.656 201.082 14.656C202.405 14.656 203.594 14.832 204.65 15.184C205.717 15.536 206.559 16.0533 207.178 16.736C207.807 17.4187 208.122 18.272 208.122 19.296C208.122 20.2453 207.786 21.024 207.114 21.632C206.442 22.24 205.557 22.6987 204.458 23.008C205.322 23.0933 206.095 23.296 206.778 23.616C207.471 23.936 208.021 24.3733 208.426 24.928C208.831 25.4827 209.034 26.176 209.034 27.008C209.034 28.192 208.682 29.1893 207.978 30C207.285 30.8 206.335 31.408 205.13 31.824C203.935 32.2293 202.57 32.432 201.034 32.432C199.359 32.432 197.914 32.2133 196.698 31.776C195.493 31.328 194.474 30.7787 193.642 30.128L195.258 27.952C196.09 28.496 196.965 28.9227 197.882 29.232C198.81 29.5307 199.866 29.68 201.05 29.68C202.447 29.68 203.493 29.4347 204.186 28.944C204.879 28.4427 205.226 27.776 205.226 26.944C205.226 26.1333 204.901 25.5253 204.25 25.12C203.61 24.7147 202.655 24.512 201.386 24.512H197.882L198.106 21.92ZM227.79 15.104V32H224.318V25.056C224.318 23.8293 224.366 22.672 224.462 21.584C224.568 20.4853 224.696 19.52 224.846 18.688L218.286 32H214.286V15.104H217.758V22.064C217.758 23.2267 217.71 24.3733 217.614 25.504C217.518 26.624 217.384 27.5787 217.214 28.368L223.726 15.104H227.79ZM243.393 32V24.768H237.057V32H233.473V15.104H237.057V21.984H243.393V15.104H246.977V32H243.393Z" fill="white"/>
<path fill-rule="evenodd" clip-rule="evenodd" d="M928.5 21.5H266.5V20.5H928.5V21.5Z" fill="#C778DD"/>
</svg>
